<?xml version="1.0" encoding="iso-8859-1"?>
<!-- Generator: Adobe Illustrator 16.0.0, SVG Export Plug-In . SVG Version: 6.00 Build 0)  -->
<!DOCTYPE svg PUBLIC "-//W3C//DTD SVG 1.1//EN" "http://www.w3.org/Graphics/SVG/1.1/DTD/svg11.dtd">
<svg version="1.1" id="Capa_1" xmlns="http://www.w3.org/2000/svg" xmlns:xlink="http://www.w3.org/1999/xlink" x="0px" y="0px"
	 width="492.993px" height="492.992px" viewBox="0 0 492.993 492.992" style="enable-background:new 0 0 492.993 492.992;"
	 xml:space="preserve">
<g>
	<path d="M360.862,275.393H132.124c-14.144,0-25.929-10.846-27.105-24.941l-3.495-41.929c-0.667-7.929,5.596-14.729,13.552-14.729
		h262.84c7.956,0,14.212,6.8,13.553,14.729l-3.495,41.929C386.797,264.547,375.013,275.393,360.862,275.393z M358.693,288.992
		h-224.4l27.2,204h170L358.693,288.992z M247.656,91.718c25.33,0,45.859-20.536,45.859-45.859C293.515,20.529,272.979,0,247.656,0
		s-45.859,20.536-45.859,45.859C201.79,71.182,222.326,91.718,247.656,91.718z M351.893,180.193l-10.044-44.846
		c-2.55-11.404-11.872-20.053-23.433-21.753l-40.779-5.998l-20.196,46.335l-2.604-22.834c-0.067-0.721-0.68-1.271-1.4-1.271h-11.54
		c-0.735,0-1.34,0.558-1.408,1.285l-2.367,23.405l-20.447-46.913l-40.78,5.998c-11.56,1.7-20.883,10.35-23.433,21.753
		l-10.044,44.839H351.893z M233.546,109.357c0.014,4.236,3.509,9.88,5.624,11.995s5.665,2.115,8.486,2.115
		c2.822,0,6.372,0,8.486-2.115c2.115-2.115,5.61-7.759,5.624-11.995c0.021-4.937-8.616-5.644-14.11-5.644
		C242.155,103.713,233.525,104.414,233.546,109.357z"/>
</g>
<g>
</g>
<g>
</g>
<g>
</g>
<g>
</g>
<g>
</g>
<g>
</g>
<g>
</g>
<g>
</g>
<g>
</g>
<g>
</g>
<g>
</g>
<g>
</g>
<g>
</g>
<g>
</g>
<g>
</g>
</svg>
